Coordinates
version=1
nRows=12
nColumns=24
inDegrees=yes

Units are S.I. units (second, meters, Newtons, ...)
Angles are in degrees.

endheader
time	pelvis_tilt	pelvis_list	pelvis_rotation	pelvis_tx	pelvis_ty	pelvis_tz	hip_flexion_r	hip_adduction_r	hip_rotation_r	knee_angle_r	ankle_angle_r	subtalar_angle_r	mtp_angle_r	hip_flexion_l	hip_adduction_l	hip_rotation_l	knee_angle_l	ankle_angle_l	subtalar_angle_l	mtp_angle_l	lumbar_extension	lumbar_bending	lumbar_rotation
      9.12000000	     42.40282513	      1.45787536	     -0.30086217	     -0.81970092	      1.01978021	     -0.28795424	     15.34037911	     -9.69942712	      7.35646445	    -50.85006543	    -10.54422152	     13.62746938	      0.00000000	     17.40026575	    -13.48884323	     -1.01472507	    -60.74886824	    -22.70494359	     16.23618243	      0.00000000	    -33.47335919	     -9.30713027	      1.86401370
      9.13000000	     42.39012122	      1.44743541	     -0.30359693	     -0.81970103	      1.01982478	     -0.28799107	     15.35195958	     -9.69166041	      7.35995846	    -50.84640169	    -10.56850732	     13.64229686	      0.00000000	     17.41442089	    -13.49121134	     -1.00395120	    -60.74787988	    -22.70367885	     16.23475312	      0.00000000	    -33.47455711	     -9.29651676	      1.88453830
      9.14000000	     42.37307776	      1.43022407	     -0.30410618	     -0.81974519	      1.01978795	     -0.28806863	     15.37635120	     -9.67761284	      7.36151921	    -50.83983674	    -10.59180446	     13.66031624	      0.00000000	     17.44565160	    -13.49680394	     -0.98188505	    -60.75386059	    -22.70280527	     16.23811606	      0.00000000	    -33.47528650	     -9.27740185	      1.90653764
      9.15000000	     42.35265936	      1.41050646	     -0.30147193	     -0.81984850	      1.01967932	     -0.28815483	     15.41031677	     -9.66143275	      7.36034127	    -50.83544882	    -10.60933689	     13.67603276	      0.00000000	     17.48999871	    -13.50432910	     -0.95269861	    -60.76595148	    -22.70054992	     16.24547727	      0.00000000	    -33.47417875	     -9.25493329	      1.92890586
      9.16000000	     42.32847899	      1.39375505	     -0.29469234	     -0.81992919	      1.01957622	     -0.28818611	     15.44828807	     -9.64744555	      7.35585872	    -50.83541969	    -10.61690220	     13.68451273	      0.00000000	     17.54042008	    -13.51226698	     -0.92361896	    -60.78031956	    -22.69648802	     16.25572684	      0.00000000	    -33.46789216	     -9.23620535	      1.94953758
      9.17000000	     42.30134865	      1.38378957	     -0.28384401	     -0.81993229	      1.01951890	     -0.28815264	     15.48388521	     -9.63861958	      7.34802650	    -50.83798323	    -10.61194852	     13.68300177	      0.00000000	     17.58865998	    -13.51923280	     -0.90237286	    -60.79179614	    -22.69194469	     16.26774961	      0.00000000	    -33.45359480	     -9.22740627	      1.96603749
      9.18000000	     42.27470908	      1.38147299	     -0.27073905	     -0.81990103	      1.01948076	     -0.28813283	     15.51051057	     -9.63514283	      7.33760291	    -50.83833916	    -10.59484944	     13.67176901	      0.00000000	     17.62704034	    -13.52515008	     -0.89410978	    -60.79646323	    -22.68980919	     16.28059809	      0.00000000	    -33.43214086	     -9.23098790	      1.97716150
      9.19000000	     42.25384410	      1.38509504	     -0.25806237	     -0.81983986	      1.01949109	     -0.28813570	     15.52140287	     -9.63381551	      7.32634541	    -50.83066865	    -10.56988617	     13.65400220	      0.00000000	     17.64867221	    -13.53215676	     -0.89938972	    -60.79398988	    -22.69372376	     16.29342599	      0.00000000	    -33.41051651	     -9.24415785	      1.98437743
      9.20000000	     42.24576608	      1.38954252	     -0.24902710	     -0.81973106	      1.01958561	     -0.28808118	     15.51034232	     -9.62931806	      7.31717800	    -50.80985866	    -10.54526105	     13.63479281	      0.00000000	     17.64698928	    -13.54374217	     -0.91438494	    -60.78799523	    -22.70670302	     16.30520704	      0.00000000	    -33.40214871	     -9.25926265	      1.99265411
      9.21000000	     42.26061699	      1.38601374	     -0.24862382	     -0.81966006	      1.01969155	     -0.28798011	     15.47266214	     -9.61643454	      7.31403685	    -50.77235380	    -10.53176613	     13.61949768	      0.00000000	     17.61632895	    -13.56258317	     -0.93299630	    -60.78357304	    -22.72954374	     16.31441211	      0.00000000	    -33.42420096	     -9.26597469	      2.00979606
      9.22000000	     42.31041065	      1.36569861	     -0.26343941	     -0.81972571	      1.01973931	     -0.28794141	     15.40514790	     -9.59143171	      7.32100296	    -50.71659353	    -10.54038747	     13.61198389	      0.00000000	     17.55288940	    -13.58943037	     -0.94953875	    -60.78375694	    -22.75987110	     16.31888661	      0.00000000	    -33.49250201	     -9.25480399	      2.04432993
      9.23000000	     42.40355198	      1.32459734	     -0.29835025	     -0.81993340	      1.01974568	     -0.28802437	     15.30531737	     -9.55246135	      7.34101019	    -50.64319736	    -10.57955874	     13.61325687	      0.00000000	     17.45423825	    -13.62388942	     -0.96097318	    -60.78807510	    -22.79263804	     16.31612216	      0.00000000	    -33.61638276	     -9.22071777	      2.10274368
